<?xml version="1.0" encoding="UTF-8"?>
<svg id="Illustration" xmlns="http://www.w3.org/2000/svg" viewBox="0 0 1016.069 697.851">
  <path d="M933.901,316.082c5.669-20.83,8.743-42.712,8.743-65.311C942.643,112.274,829.095,0,689.025,0c-108.727,0-201.436,67.668-237.5,162.718-27.263-12.216-57.506-19.074-89.386-19.074-119.771,0-216.863,96.003-216.863,214.429v.031C64.988,358.438,0,422.867,0,502.332s65.32,144.257,145.897,144.257h688.062c100.576,0,182.11-80.618,182.11-180.066,0-62.932-32.704-118.247-82.168-150.441Z" fill="#0e41aa" stroke-width="0"/>
  <g>
    <path d="M503.188,549.658V236.291c0-.087,0-.174.009-.261-.097-5.699-3.067-13.226-9.211-16.351-11.32-4.992-37.249-2.1-62.472,18.315,8.224,3.773,16.119,10.149,23.511,16.216,2.158-1.258,4.654-1.974,7.305-1.974,8.001,0,14.513,6.511,14.513,14.513,0,7.527-5.902,13.855-13.429,14.426-.222.039-.861.087-1.084.087-8.001,0-14.513-6.511-14.513-14.513,0-1.819.348-3.56.948-5.166-12.645-10.362-25.62-20.734-37.056-16.119-9.433,3.822-19.515,23.365-14.88,45.173,9.675.31,18.731,2.932,26.568,7.866,15.8,10.439,23.956,27.932,21.324,45.667-.387,2.651-2.893,4.431-5.486,4.073-2.651-.387-4.47-2.854-4.073-5.496,2.071-13.971-4.479-27.826-17.009-36.107-7.111-4.48-15.471-6.647-24.739-6.347-.155.01-.31.01-.464.01-8.253.3-17.057,2.506-25.891,6.618-22.379,10.449-15.964,44.728-15.171,48.588.551,2.37.077,4.886-1.345,6.947-.194.281-19.254,28.619-9.501,49.498,1.471,3.164,3.57,6.057,6.269,8.679.116.097.213.194.319.3,7.373,6.956,19.108,11.978,35.053,14.958,2.622.484,4.354,3.019,3.86,5.641-.494,2.641-3.067,4.296-5.641,3.87-15.751-2.951-28.039-7.876-36.736-14.706-10.217,10.101-12.229,23.878-8.572,33.253,5.012,15.209,17.183,24.546,21.043,25.01,2.516.3,4.838,1.596,6.347,3.56,1.451,1.877,2.061,4.189,1.742,6.386-.029.252-.165.977-.232,1.219-3.986,14.184.039,29.2,11.039,40.491,5.998,7.314,15.229,11.813,24.584,12.345,4.576-.484,8.707,2.245,9.888,6.269,6.028,17.986,26.694,29.025,47.505,25.068,42.493-4.954,45.473-31.841,45.676-34.637ZM375.119,334.571c0-8.001,6.511-14.513,14.513-14.513s14.513,6.511,14.513,14.513c0,4.334-1.954,8.282-5.041,10.942l15.335,28.522,38.623-5.834c1.19-6.831,7.159-12.036,14.309-12.036,8.001,0,14.513,6.511,14.513,14.513,0,7.547-5.921,13.884-13.478,14.435-.203.029-.832.078-1.035.078-5.37,0-10.169-2.97-12.675-7.46l-38.333,5.786-1.219,18.77c5.05,2.283,8.572,7.363,8.572,13.245,0,7.547-5.921,13.874-13.439,14.426-.222.039-.851.087-1.074.087-8.001,0-14.513-6.511-14.522-14.493,0-6.724,4.586-12.403,10.807-14.038l1.384-21.111-16.854-31.338c-.165.01-.3.019-.387.019-8.001,0-14.513-6.511-14.513-14.513ZM470.864,459.148c-.213.039-.851.087-1.074.087-4.17,0-7.943-1.771-10.585-4.596l-23.888,12.007,9.656,43.877,8.669,18.596c8.321-1.016,16.332,5.776,16.332,14.397,0,7.547-5.921,13.884-13.487,14.435-.203.029-.813.077-1.026.077-8.001,0-14.513-6.511-14.493-14.522,0-3.889,1.538-7.43,4.044-10.043l-7.992-17.135-24.981-5.07c-2.371,3.909-6.531,6.647-11.349,6.995-.222.039-.861.087-1.083.087-8.001,0-14.513-6.511-14.513-14.513s6.511-14.513,14.513-14.513c7.314,0,13.361,5.428,14.367,12.471l20.076,4.073-8.988-40.81c-.464-2.158.581-4.364,2.554-5.36l27.7-13.923c-.029-.348-.039-.697-.039-1.045,0-8.001,6.512-14.513,14.513-14.513s14.513,6.511,14.513,14.513c0,7.547-5.921,13.874-13.439,14.426Z" fill="#7cc0eb" stroke-width="0"/>
    <path d="M558.557,582.506c20.811,3.957,41.477-7.082,47.505-25.068,1.181-4.025,5.312-6.753,9.888-6.269,9.356-.532,18.586-5.031,24.584-12.345,11.001-11.291,15.026-26.307,11.039-40.491-.068-.242-.203-.967-.232-1.219-.319-2.196.29-4.509,1.742-6.386,1.509-1.964,3.831-3.26,6.347-3.56,3.86-.464,16.031-9.801,21.043-25.01,3.657-9.375,1.645-23.153-8.572-33.253-8.698,6.831-20.985,11.755-36.736,14.706-2.573.426-5.147-1.229-5.641-3.87-.493-2.622,1.238-5.157,3.86-5.641,15.945-2.98,27.68-8.001,35.053-14.958.106-.106.203-.203.319-.3,2.699-2.622,4.799-5.515,6.269-8.679,9.753-20.879-9.307-49.217-9.501-49.498-1.422-2.061-1.896-4.576-1.345-6.947.793-3.86,7.208-38.139-15.171-48.588-8.833-4.112-17.638-6.318-25.891-6.618-.155,0-.309,0-.464-.01-9.269-.3-17.628,1.867-24.739,6.347-12.529,8.282-19.079,22.137-17.009,36.107.396,2.641-1.422,5.108-4.073,5.496-2.593.358-5.099-1.422-5.486-4.073-2.632-17.735,5.524-35.227,21.324-45.667,7.837-4.934,16.893-7.556,26.568-7.866,4.634-21.808-5.447-41.351-14.88-45.173-11.436-4.615-24.41,5.757-37.056,16.119.6,1.606.948,3.348.948,5.166,0,8.001-6.511,14.513-14.513,14.513-.222,0-.861-.048-1.084-.087-7.527-.571-13.429-6.898-13.429-14.426,0-8.001,6.511-14.513,14.513-14.513,2.651,0,5.147.716,7.305,1.974,7.392-6.066,15.287-12.442,23.511-16.216-25.223-20.414-51.153-23.307-62.472-18.315-6.144,3.125-9.114,10.652-9.211,16.351.009.087.009.174.009.261v313.28c0,.029,0,.058,0,.087.203,2.796,3.183,29.683,45.676,34.637ZM626.438,347.294c-.087,0-.223-.01-.387-.019l-16.854,31.338,1.384,21.111c6.221,1.635,10.807,7.314,10.807,14.038-.01,7.982-6.521,14.493-14.522,14.493-.223,0-.852-.048-1.074-.087-7.518-.551-13.439-6.879-13.439-14.426,0-5.882,3.522-10.962,8.572-13.245l-1.219-18.77-38.333-5.786c-2.506,4.489-7.305,7.46-12.675,7.46-.203,0-.832-.048-1.035-.078-7.556-.551-13.478-6.889-13.478-14.435,0-8.001,6.511-14.513,14.513-14.513,7.15,0,13.12,5.205,14.309,12.036l38.623,5.834,15.335-28.522c-3.086-2.661-5.041-6.608-5.041-10.942,0-8.001,6.511-14.513,14.513-14.513s14.513,6.511,14.513,14.513-6.511,14.513-14.513,14.513ZM531.766,442.932c0-8.001,6.512-14.513,14.513-14.513s14.513,6.511,14.513,14.513c0,.348-.01.697-.039,1.045l27.7,13.923c1.974.996,3.019,3.202,2.554,5.36l-8.988,40.81,20.076-4.073c1.006-7.043,7.053-12.471,14.367-12.471,8.001,0,14.513,6.511,14.513,14.513s-6.511,14.513-14.513,14.513c-.222,0-.861-.048-1.083-.087-4.818-.348-8.979-3.086-11.349-6.995l-24.981,5.07-7.992,17.135c2.506,2.612,4.044,6.153,4.044,10.043.019,8.011-6.492,14.522-14.493,14.522-.213,0-.822-.048-1.026-.077-7.566-.551-13.487-6.889-13.487-14.435,0-8.621,8.011-15.413,16.332-14.397l8.669-18.596,9.656-43.877-23.888-12.007c-2.641,2.825-6.415,4.596-10.585,4.596-.223,0-.861-.048-1.074-.087-7.518-.551-13.439-6.879-13.439-14.426Z" fill="#7cc0eb" stroke-width="0"/>
  </g>
  <g>
    <path d="M435.584,428.746c-5.089.253-10.171.467-15.227.653l-.023-.057-36.396-27.97c-12.02-9.237-26.495-9.456-38.652-.583l-39.199,28.61c-5.056-.186-10.137-.4-15.227-.653-28.767-1.431-51.205-9.591-51.205,29.839s5.334,103.372,5.334,103.372c0,0-3.2,47.956,52.272,88.453,47.714,34.833,65.777,47.441,65.777,47.441h0s18.431-12.608,66.145-47.441c55.472-40.497,52.272-88.453,52.272-88.453,0,0,5.334-63.942,5.334-103.372,0-39.431-22.438-31.27-51.205-29.839" fill="#ee4b5b" stroke-width="0"/>
    <g>
      <circle cx="363.223" cy="538.279" r="77.837" fill="#c20025" stroke-width="0"/>
      <path d="M350.988,581.316c-.925,0-1.797-.432-2.356-1.175l-28.529-37.862c-.979-1.302-.72-3.151.582-4.131,1.305-.968,3.154-.72,4.131.582l26.014,34.526,50.695-76.686c1.402-2.119,5.062-1.881,5.723,2.016l-53.8,81.405c-.527.801-1.411,1.296-2.368,1.325h-.092Z" fill="#fff" stroke-width="0"/>
    </g>
  </g>
</svg>